<?xml version="1.0" encoding="utf-8"?>
<!-- Generator: Adobe Illustrator 27.7.0, SVG Export Plug-In . SVG Version: 6.00 Build 0)  -->
<svg version="1.1" id="Layer_1" xmlns="http://www.w3.org/2000/svg" xmlns:xlink="http://www.w3.org/1999/xlink" x="0px" y="0px"
	 viewBox="0 0 100 100" style="enable-background:new 0 0 100 100;" xml:space="preserve">
<style type="text/css">
	.st0{fill:url(#SVGID_1_);}
	.st1{fill:url(#SVGID_00000105399160903444652110000006979319559965076366_);}
	.st2{fill:url(#SVGID_00000084500682381211803660000003918414633263519362_);}
	.st3{fill:url(#SVGID_00000083087392179436526420000017863224600520044443_);}
	.st4{fill:url(#SVGID_00000093892146801754258730000017495998065879263872_);}
	.st5{fill:#CFCDCD;}
	.st6{fill:url(#SVGID_00000181054546900928822380000014738252211850623618_);}
	.st7{fill:url(#SVGID_00000002370357824304608170000016201488602232628157_);}
	.st8{fill:url(#SVGID_00000158725222761885787850000016441744551404353410_);}
	.st9{fill:url(#SVGID_00000007421783744230447840000012300534127649222047_);}
	.st10{fill:url(#SVGID_00000162352637811863303940000008167331767138443916_);}
	.st11{fill:url(#SVGID_00000035527986291246846060000014962297650068670612_);}
	.st12{fill:url(#SVGID_00000177462745369512280900000017162743686750845841_);}
	.st13{fill:url(#SVGID_00000150805382835399278030000011704803213961250211_);}
	.st14{fill:url(#SVGID_00000018231268781384278260000008676343313434296501_);}
	.st15{fill:url(#SVGID_00000008141836021375142980000013250800656940653471_);}
	.st16{fill:url(#SVGID_00000169546044352674178260000006301457145881096596_);}
</style>
<g>
	<linearGradient id="SVGID_1_" gradientUnits="userSpaceOnUse" x1="6.2177" y1="50" x2="93.7823" y2="50">
		<stop  offset="0" style="stop-color:#243872"/>
		<stop  offset="1" style="stop-color:#1C68AD"/>
	</linearGradient>
	<path class="st0" d="M82.73,56.59c0-10.05,0-20.2,0-30.39c-24.59,0-49.13,0-73.73,0c-0.01,0.23-0.04,0.43-0.04,0.63
		c0,16.32,0,32.63,0,48.95c0,1.36,0.58,2.28,1.77,2.68c0.44,0.15,0.94,0.14,1.41,0.14c10.9,0.01,21.79,0.01,32.69,0.01
		c0.24,0,0.48-0.01,0.73,0c0.98,0.04,1.51,0.53,1.52,1.4c0.01,0.83-0.46,1.31-1.4,1.41c-0.24,0.03-0.48,0.01-0.73,0.01
		c-11.17-0.01-22.34,0-33.51-0.02c-2.74-0.01-5.22-2.35-5.22-5.17C6.22,54.61,6.21,33,6.24,11.39c0-2.72,2.33-4.9,4.99-5.08
		c0.33-0.02,0.67-0.01,1-0.01c22.43,0,44.86,0,67.29,0c3.71,0,6.05,2.35,6.05,6.07c0,14.74,0,29.48,0,44.22c0,0.33,0,0.65,0,1.05
		c0.98-0.43,1.88-0.84,2.79-1.23c0.82-0.35,1.59-0.17,2.03,0.58c1.06,1.8,2.1,3.61,3.11,5.44c0.44,0.8,0.25,1.43-0.5,1.98
		c-0.93,0.68-1.85,1.37-2.8,2.02c-0.62,0.42-0.63,0.99-0.62,1.65c0.03,1.97,0.06,3.94-0.01,5.91c-0.03,0.85,0.14,1.42,0.9,1.89
		c0.93,0.58,1.78,1.28,2.64,1.96c0.76,0.6,0.86,1.22,0.39,2c-1.01,1.69-2.02,3.39-3.02,5.09c-0.51,0.86-1.16,1.14-2.1,0.76
		c-1.11-0.44-2.19-0.95-3.28-1.45c-0.53-0.24-0.93-0.27-1.45,0.15c-1.78,1.43-3.76,2.54-5.92,3.31c-0.21,0.08-0.46,0.35-0.49,0.56
		c-0.22,1.4-0.37,2.81-0.57,4.22c-0.11,0.73-0.56,1.2-1.31,1.21c-2.15,0.02-4.3,0.02-6.45-0.01c-0.81-0.01-1.3-0.59-1.48-1.82
		c-0.19-1.29-0.26-2.6-0.37-3.71c-1.76-0.92-3.42-1.76-5.04-2.67c-0.58-0.33-1.04-0.88-1.6-1.26c-0.23-0.16-0.65-0.26-0.89-0.16
		c-1.25,0.51-2.47,1.1-3.7,1.65c-0.77,0.35-1.43,0.14-1.85-0.56c-1.09-1.81-2.13-3.66-3.2-5.48c-0.4-0.68-0.24-1.28,0.31-1.72
		c1.21-0.99,2.47-1.92,3.72-2.88c-0.5-2.63-0.56-5.3,0.03-7.99c-1.21-0.92-2.48-1.84-3.7-2.82c-0.52-0.42-0.86-0.97-0.44-1.68
		c1.11-1.91,2.19-3.83,3.33-5.71c0.4-0.66,1.07-0.79,1.81-0.48c1.16,0.49,2.34,0.94,3.47,1.48c0.55,0.26,0.95,0.13,1.36-0.23
		c1.66-1.44,3.52-2.55,5.62-3.2c1.15-0.35,0.74-1.34,0.92-2.05c0.24-0.94,0.25-1.93,0.4-2.89c0.14-0.87,0.69-1.25,1.57-1.24
		c1.88,0.02,3.75,0.04,5.63-0.01c1.1-0.03,1.89,0.28,2.05,1.9c0.12,1.18,0.22,2.37,0.38,3.54c0.03,0.21,0.24,0.47,0.43,0.56
		C79.36,55.06,81.06,55.82,82.73,56.59z M8.98,23.19c0.05,0.05,0.09,0.11,0.14,0.16c0.21,0.01,0.42,0.03,0.63,0.03
		c24.05,0,48.1,0,72.16,0c0.26,0,0.53-0.02,0.87-0.04c0-0.34,0-0.63,0-0.93c0-3.3,0-6.6,0-9.89c0-2.44-1.03-3.47-3.46-3.47
		c-22.33,0-44.66,0-66.98,0c-0.27,0-0.55-0.01-0.82,0.01c-1.31,0.12-2.56,1.28-2.56,2.42C8.96,15.38,8.98,19.28,8.98,23.19z
		 M53.79,62.78c1.17,0.85,2.34,1.7,3.5,2.56c0.51,0.38,0.77,0.79,0.57,1.52c-0.72,2.6-0.92,5.23-0.09,7.87
		c0.33,1.04,0,1.7-0.92,2.36c-1.03,0.74-2.04,1.51-3.04,2.26c0.71,1.17,1.38,2.29,2.03,3.35c1.29-0.57,2.49-1.18,3.76-1.61
		c0.48-0.17,1.31-0.14,1.64,0.17c2.12,2.01,4.5,3.51,7.35,4.27c0.55,0.15,0.99,0.52,1.06,1.27c0.12,1.43,0.38,2.86,0.59,4.32
		c1.05,0,2.07-0.02,3.1,0.01c0.53,0.01,0.82-0.08,0.85-0.73c0.03-0.82,0.23-1.63,0.33-2.45c0.16-1.26,0.39-2.38,1.93-2.52
		c0.48-0.04,0.94-0.29,1.39-0.49c1.92-0.86,3.65-2,5.17-3.47c0.36-0.35,0.72-0.65,1.33-0.35c1.08,0.53,2.21,0.93,3.31,1.43
		c0.57,0.26,0.95,0.38,1.29-0.38c0.42-0.96,1.04-1.82,1.61-2.79c-1.13-0.82-2.28-1.56-3.29-2.44c-0.42-0.37-0.9-1.14-0.78-1.58
		c0.68-2.55,0.77-5.09,0.22-7.66c-0.36-1.67-0.26-1.93,1.15-2.92c0.92-0.64,1.8-1.35,2.68-2.02c-0.55-0.96-1.06-1.78-1.5-2.65
		c-0.26-0.5-0.63-0.5-1.03-0.33c-1,0.42-1.99,0.84-2.96,1.32c-0.8,0.4-1.43,0.28-2.09-0.32c-1.98-1.8-4.17-3.21-6.83-3.83
		c-0.77-0.18-1.33-0.64-1.41-1.58c-0.13-1.4-0.39-2.78-0.59-4.14c-1.35,0-2.64,0-3.92,0c-0.14,1.24-0.29,2.42-0.39,3.6
		c-0.1,1.26-0.73,1.96-1.99,2.17c-0.6,0.1-1.19,0.33-1.75,0.57c-1.73,0.74-3.26,1.79-4.58,3.13c-0.64,0.65-1.26,0.76-2.05,0.36
		c-0.99-0.49-2.03-0.9-3.01-1.4c-0.46-0.24-0.69-0.13-0.92,0.27C54.96,60.84,54.41,61.74,53.79,62.78z"/>
	
		<linearGradient id="SVGID_00000031925492568289282960000015577929421613417363_" gradientUnits="userSpaceOnUse" x1="11.6064" y1="42.9009" x2="58.0312" y2="42.9009">
		<stop  offset="0" style="stop-color:#243872"/>
		<stop  offset="1" style="stop-color:#1C68AD"/>
	</linearGradient>
	<path style="fill:url(#SVGID_00000031925492568289282960000015577929421613417363_);" d="M51.53,39.75
		c-1.52,1.76-2.98,3.45-4.44,5.13c1.18,2.13,0.55,4.78-0.99,6.05c-1.98,1.62-4.26,1.93-6.34,0.39c-1.52-1.13-2.27-2.7-2.15-4.65
		c0.02-0.29-0.18-0.73-0.42-0.89c-1.54-1.01-3.13-1.95-4.7-2.91c-0.48-0.29-0.85-0.31-1.34,0.13c-1.6,1.46-3.47,1.66-5.45,0.89
		c-0.49-0.19-0.78-0.23-1.18,0.26c-1.12,1.37-2.34,2.65-3.57,4.01c0.96,1.26,0.9,2.75,0.61,4.16c-0.25,1.23-1.1,2.22-2.22,2.89
		c-1.89,1.13-4.5,1.09-6.2-0.73c-2.04-2.17-1.88-4.69-0.51-6.54c1.7-2.3,4.38-2.57,6.18-1.5c1.43-1.61,2.85-3.22,4.3-4.85
		c-1.14-2.16-0.54-4.11,0.97-5.77c1.42-1.56,3.37-1.8,5.25-1.12c2.4,0.86,3.5,2.76,3.42,5.27c2.07,1.26,4.1,2.49,5.93,3.6
		c1.23-0.46,2.31-1.02,3.45-1.24c0.73-0.14,1.57,0.15,2.32,0.37c0.43,0.12,0.63,0.14,0.95-0.25c1.19-1.45,2.46-2.84,3.69-4.25
		c-2.12-2.89-1.28-5.49,0.73-7.27c1.5-1.33,4.35-1.63,6.52,0.22c1.48,1.27,2.31,3.81,1.15,5.92C56.14,39.51,53.91,40.34,51.53,39.75
		z M52.97,37c1.65,0.03,2.36-1.09,2.46-2.24c0.09-1.1-1.19-2.29-2.36-2.3c-1.21,0-2.37,1.12-2.35,2.29
		C50.74,35.73,51.9,37.25,52.97,37z M44.9,47.14c-0.01-1.38-0.86-2.16-2.35-2.15c-1.17,0-2.22,1.07-2.19,2.23
		c0.03,1.17,1.16,2.29,2.33,2.3C43.9,49.53,44.91,48.45,44.9,47.14z M18.93,50.95c0.21-1.45-1.16-2.34-2.27-2.34
		c-1.14,0-2.24,0.89-2.24,2.28c0,1.36,1.06,2.27,2.25,2.28C17.91,53.18,18.92,52.18,18.93,50.95z M30.01,39.28
		c0-1.31-1.01-2.31-2.3-2.29c-1.14,0.02-2.26,1.12-2.23,2.32c0.04,1.24,1.01,2.25,2.3,2.24C29.03,41.54,30.01,40.53,30.01,39.28z"/>
	
		<linearGradient id="SVGID_00000033338588325748281390000013182909504052447372_" gradientUnits="userSpaceOnUse" x1="11.8352" y1="61.5122" x2="51.1024" y2="61.5122">
		<stop  offset="0" style="stop-color:#243872"/>
		<stop  offset="1" style="stop-color:#1C68AD"/>
	</linearGradient>
	<path style="fill:url(#SVGID_00000033338588325748281390000013182909504052447372_);" d="M30.37,69.47c3.69,0,7.38,0,11.07,0
		c0.05-0.05,0.1-0.1,0.15-0.15c0.01-4.23,0.02-8.47,0.03-12.7c0-0.64,0.12-1.22,0.81-1.42c0.7-0.2,1.35-0.04,1.72,0.63
		c0.17,0.32,0.21,0.74,0.21,1.12c0.01,3.84,0.01,7.68,0.01,11.53c0,0.3,0,0.6,0,1.03c1.44,0,2.85,0,4.26,0
		c0.42,0,0.85-0.03,1.27,0.01c0.79,0.08,1.19,0.46,1.19,1.35c0,0.88-0.36,1.27-1.17,1.37c-0.15,0.02-0.3,0-0.45,0
		c-12.01,0-24.02,0-36.03,0c-1.27,0-1.69-0.41-1.6-1.57c0.05-0.75,0.45-1.14,1.2-1.15c0.57-0.01,1.15-0.05,1.72,0.01
		c0.75,0.07,0.92-0.25,0.91-0.94c-0.04-1.94-0.02-3.87-0.01-5.81c0-1.35,0.22-1.61,1.34-1.61c1.08,0,1.4,0.37,1.4,1.68
		c0,2.18,0,4.35,0,6.6c2.99,0,5.96,0,9.02,0c0-0.34,0-0.67,0-0.99c0-5.32,0-10.65,0-15.97c0-1.35,0.36-1.72,1.51-1.66
		c0.8,0.04,1.25,0.62,1.25,1.64c0,4.27,0,8.53,0,12.8c0,1.36,0.02,2.72,0.03,4.08C30.27,69.37,30.32,69.42,30.37,69.47z"/>
	
		<linearGradient id="SVGID_00000050634511803285445760000013468673040821206708_" gradientUnits="userSpaceOnUse" x1="53.2537" y1="47.9821" x2="56.0084" y2="47.9821">
		<stop  offset="0" style="stop-color:#243872"/>
		<stop  offset="1" style="stop-color:#1C68AD"/>
	</linearGradient>
	<path style="fill:url(#SVGID_00000050634511803285445760000013468673040821206708_);" d="M53.26,47.98c0-1.27-0.01-2.54,0-3.81
		c0.01-0.92,0.38-1.34,1.14-1.36c1.17-0.03,1.57,0.26,1.59,1.3c0.03,2.51,0.02,5.02,0,7.53c-0.01,0.89-0.76,1.57-1.59,1.52
		c-0.61-0.04-1.14-0.76-1.14-1.55C53.25,50.4,53.26,49.19,53.26,47.98z"/>
	
		<linearGradient id="SVGID_00000169522836325933732080000016869870268432676019_" gradientUnits="userSpaceOnUse" x1="30.2138" y1="69.3939" x2="30.3729" y2="69.3939">
		<stop  offset="0" style="stop-color:#243872"/>
		<stop  offset="1" style="stop-color:#1C68AD"/>
	</linearGradient>
	<path style="fill:url(#SVGID_00000169522836325933732080000016869870268432676019_);" d="M30.37,69.47
		c-0.05-0.05-0.11-0.1-0.16-0.15C30.27,69.37,30.32,69.42,30.37,69.47z"/>
	
		<linearGradient id="SVGID_00000002354966362118199640000016196177491938936496_" gradientUnits="userSpaceOnUse" x1="41.4475" y1="69.3938" x2="41.6023" y2="69.3938">
		<stop  offset="0" style="stop-color:#243872"/>
		<stop  offset="1" style="stop-color:#1C68AD"/>
	</linearGradient>
	<path style="fill:url(#SVGID_00000002354966362118199640000016196177491938936496_);" d="M41.6,69.32c-0.05,0.05-0.1,0.1-0.15,0.15
		C41.5,69.42,41.55,69.37,41.6,69.32z"/>
	
		<linearGradient id="SVGID_00000025406303607630792050000003574953399777005753_" gradientUnits="userSpaceOnUse" x1="56.7352" y1="16.1693" x2="75.4128" y2="16.1693">
		<stop  offset="0" style="stop-color:#243872"/>
		<stop  offset="1" style="stop-color:#1C68AD"/>
	</linearGradient>
	<path style="fill:url(#SVGID_00000025406303607630792050000003574953399777005753_);" d="M66.13,17.55c-2.63,0-5.27,0-7.9,0
		c-0.69,0-1.13-0.23-1.4-0.97c-0.25-0.69,0.02-1.1,0.44-1.47c0.22-0.19,0.59-0.3,0.89-0.3c5.33-0.02,10.65-0.03,15.98-0.01
		c1.03,0,1.29,0.38,1.27,1.53c-0.02,0.87-0.4,1.22-1.39,1.22C71.39,17.56,68.76,17.55,66.13,17.55z"/>
	
		<linearGradient id="SVGID_00000090294363242572257320000006210127722424880263_" gradientUnits="userSpaceOnUse" x1="14.3627" y1="16.2028" x2="22.5844" y2="16.2028">
		<stop  offset="0" style="stop-color:#243872"/>
		<stop  offset="1" style="stop-color:#1C68AD"/>
	</linearGradient>
	<path style="fill:url(#SVGID_00000090294363242572257320000006210127722424880263_);" d="M18.45,12.11
		c2.22-0.05,4.09,1.63,4.13,3.93c0.05,2.54-1.93,4.28-4.32,4.26c-1.85-0.02-4.04-1.92-3.9-4.31C14.49,14.03,16.02,11.92,18.45,12.11
		z M18.43,17.38c0.98-0.01,1.42-0.4,1.41-1.28c-0.01-0.69-0.66-1.27-1.42-1.27c-0.71,0-1.31,0.64-1.3,1.39
		C17.13,16.99,17.57,17.39,18.43,17.38z"/>
	
		<linearGradient id="SVGID_00000016040109270671235820000012787329064548713879_" gradientUnits="userSpaceOnUse" x1="37.4511" y1="16.209" x2="45.644" y2="16.209">
		<stop  offset="0" style="stop-color:#243872"/>
		<stop  offset="1" style="stop-color:#1C68AD"/>
	</linearGradient>
	<path style="fill:url(#SVGID_00000016040109270671235820000012787329064548713879_);" d="M45.63,16.2c0.23,2.38-1.97,4-3.96,4.11
		c-2.33,0.13-4.23-2.11-4.21-4.12c0.02-2.19,1.74-4.12,3.78-4.09C44.03,12.15,45.62,13.59,45.63,16.2z M41.58,17.38
		c1.05-0.09,1.4-0.46,1.32-1.42c-0.06-0.79-0.58-1.18-1.48-1.13c-0.64,0.04-1.29,0.75-1.24,1.35C40.24,17,40.77,17.45,41.58,17.38z"
		/>
	
		<linearGradient id="SVGID_00000025429384126354036010000000306902956557688204_" gradientUnits="userSpaceOnUse" x1="25.8276" y1="16.2082" x2="34.0265" y2="16.2082">
		<stop  offset="0" style="stop-color:#243872"/>
		<stop  offset="1" style="stop-color:#1C68AD"/>
	</linearGradient>
	<path style="fill:url(#SVGID_00000025429384126354036010000000306902956557688204_);" d="M34,16.12c0.28,2.46-2.01,4.14-4.06,4.2
		c-2.21,0.07-4.14-2.1-4.11-4.14c0.03-2.17,1.75-4.11,3.8-4.07C32.41,12.15,34,13.56,34,16.12z M31.28,16.18
		c-0.01-0.94-0.43-1.36-1.35-1.36c-0.71,0-1.4,0.67-1.37,1.32c0.03,0.67,0.8,1.44,1.42,1.41C30.69,17.53,31.29,16.91,31.28,16.18z"
		/>
	
		<linearGradient id="SVGID_00000170997936215339197660000000040083745930021006_" gradientUnits="userSpaceOnUse" x1="62.7614" y1="71.1444" x2="81.5921" y2="71.1444">
		<stop  offset="0" style="stop-color:#243872"/>
		<stop  offset="1" style="stop-color:#1C68AD"/>
	</linearGradient>
	<path style="fill:url(#SVGID_00000170997936215339197660000000040083745930021006_);" d="M81.59,71.17
		c0.18,5.39-4.46,9.21-8.92,9.41c-5.87,0.25-9.93-4.41-9.9-9.45c0.03-5.12,3.89-9.47,9.55-9.43C77.41,61.74,81.75,66.03,81.59,71.17
		z M65.6,70.94c-0.28,3.5,3.19,6.83,6.56,6.75c3.52-0.08,7.01-2.91,6.71-7.24c-0.22-3.18-2.78-5.93-5.9-6.01
		C68.42,64.31,65.61,66.91,65.6,70.94z"/>
</g>
</svg>
