<?xml version="1.0" encoding="utf-8"?>
<!-- Generator: Adobe Illustrator 27.7.0, SVG Export Plug-In . SVG Version: 6.00 Build 0)  -->
<svg version="1.1" id="Layer_1" xmlns="http://www.w3.org/2000/svg" xmlns:xlink="http://www.w3.org/1999/xlink" x="0px" y="0px"
	 viewBox="0 0 100 100" style="enable-background:new 0 0 100 100;" xml:space="preserve">
<style type="text/css">
	.st0{fill:url(#SVGID_1_);}
	.st1{fill:url(#SVGID_00000119100741596003437740000015092822565658707865_);}
	.st2{fill:url(#SVGID_00000157296418261792663920000012476650528791326345_);}
	.st3{fill:url(#SVGID_00000099631008688353651450000007368238983926429095_);}
	.st4{fill:url(#SVGID_00000055668673864860313640000012738714977724191675_);}
	.st5{fill:#CFCDCD;}
	.st6{fill:url(#SVGID_00000087414472995940678620000012056681904447090618_);}
	.st7{fill:url(#SVGID_00000018948254144243968520000014497269435180352944_);}
	.st8{fill:url(#SVGID_00000036242946046172030490000003756837035896032931_);}
	.st9{fill:url(#SVGID_00000158736153176160732590000007591913032890684823_);}
	.st10{fill:url(#SVGID_00000042010432183334774600000002286444691732365203_);}
	.st11{fill:url(#SVGID_00000054227434383698056970000003589000217263489923_);}
	.st12{fill:url(#SVGID_00000166651693894341874550000002893464349767447710_);}
	.st13{fill:url(#SVGID_00000062883597562901836010000009360416480755788697_);}
	.st14{fill:url(#SVGID_00000011007994077256618360000013361623166763417505_);}
	.st15{fill:url(#SVGID_00000039133351583871646030000014812680232516194461_);}
	.st16{fill:url(#SVGID_00000091704189173314986400000006810213009027703726_);}
</style>
<g>
	<linearGradient id="SVGID_1_" gradientUnits="userSpaceOnUse" x1="7.988" y1="52.2828" x2="73.7831" y2="52.2828">
		<stop  offset="0" style="stop-color:#243872"/>
		<stop  offset="1" style="stop-color:#1C68AD"/>
	</linearGradient>
	<path class="st0" d="M7.99,86.59c0.15,0.17,0.23,0.62,0.51,0.07c0.4-0.78,0.54-1.59,0.53-2.45c-0.05-2.49-0.07-4.97,0.41-7.43
		c0.61-3.15,1.79-6.06,3.61-8.71c0.4-0.58,0.58-1.14,0.52-1.83c-0.08-0.95-0.09-1.91-0.17-2.86c-0.28-3.22,2.11-5.64,5.5-5.62
		c3.85,0.01,7.71,0.02,11.56,0.02c1.89,0,2.27-0.34,2.4-2.26c0.06-0.87,0.01-1.75,0.05-2.62c0.02-0.45-0.21-0.7-0.55-0.92
		c-3.31-2.16-5.17-5.26-5.78-9.12c-0.1-0.62-0.35-0.74-0.9-0.72c-1.14,0.04-2.24-0.16-3.18-0.85c-1.06-0.78-1.62-1.86-1.63-3.16
		c-0.02-1.58,0.02-3.17,0.09-4.75c0.06-1.26,0.57-2.34,1.68-3.03c0.42-0.26,0.46-0.61,0.47-1.04c0.06-2.27-0.17-4.54,0.15-6.8
		c0.69-4.98,5.22-9.36,10.22-9.72c4.77-0.34,9.56-0.16,14.34-0.09c3,0.04,4.92,1.95,5.29,4.91c0.06,0.45,0.23,0.58,0.66,0.62
		c2.88,0.27,4.75,2.18,4.95,5.07c0.13,1.91,0.11,3.83,0.02,5.74c-0.03,0.63,0.12,1.06,0.67,1.45c1.07,0.76,1.55,1.91,1.56,3.2
		c0.03,3.12,0.07,6.23,0.01,9.35c-0.05,2.55-2.17,4.64-4.91,4.62c-1.67-0.01-2.85,0.37-3.79,1.82c-0.66,1.01-1.68,1.79-2.72,2.46
		c-0.41,0.26-0.61,0.57-0.59,1.07c0.04,0.9-0.02,1.8,0.01,2.71c0.06,1.67,0.54,2.12,2.2,2.11c3.91-0.01,7.82-0.04,11.73-0.05
		c1.16,0,2.3,0.15,3.29,0.82c1.57,1.07,2.33,2.58,2.25,4.47c-0.05,1.17,0.01,2.35-0.2,3.52c-0.08,0.42,0,0.81,0.26,1.16
		c3.45,4.67,4.61,9.99,4.43,15.69c-0.04,1.11,0.05,2.16,0.54,3.25c1.14,2.54-0.79,5.21-3.71,5.34c-0.16,0.01-0.33,0-0.49,0
		c-18.73,0-37.45,0-56.18,0c-1.38,0-2.72-0.14-3.81-1.17c-0.76-0.72-0.97-1.67-1.27-2.6C7.99,87.68,7.99,87.13,7.99,86.59z
		 M13.85,71.59c-0.05-0.01-0.11-0.02-0.16-0.03c-0.17,0.34-0.34,0.67-0.5,1.02c-1.33,2.91-1.86,5.98-1.81,9.16
		c0.04,2.55,0.04,2.54,2.59,2.43c0.46-0.02,0.62-0.16,0.59-0.62c-0.07-0.93-0.13-1.86-0.13-2.78c0-0.82,0.41-1.23,1.1-1.25
		c0.75-0.02,1.09,0.41,1.17,1.1c0.1,0.92,0.23,1.85,0.23,2.77c0,0.69,0.29,0.78,0.89,0.78c5.9-0.01,11.81,0,17.71,0.01
		c0.85,0,0.88-0.04,0.62-0.88c-0.41-1.34-1.21-2.43-2.07-3.5c-3.34-4.17-1.91-10.14,2.13-12.61c1.71-1.05,3.19-0.25,3.26,1.76
		c0.04,1.2,0.02,2.41,0.02,3.61c0,2.17,0,2.15,2.15,2.05c0.58-0.03,0.82-0.23,0.82-0.84c-0.02-1.58,0-3.17,0.01-4.76
		c0-0.86,0.16-1.65,1-2.09c0.84-0.44,1.6-0.13,2.3,0.35c2.46,1.7,3.74,4.07,3.87,7.05c0.1,2.18-0.67,4.06-2.06,5.72
		c-0.8,0.94-1.49,1.95-1.85,3.16c-0.3,1.01-0.3,1.02,0.72,0.98c0.3-0.01,0.6-0.01,0.9-0.01c5.58,0,11.15-0.02,16.73,0
		c0.62,0,0.85-0.14,0.86-0.81c0.01-1.58,0.11-3.17,0.2-4.75c0.28-5.24,0.59-10.48,0.86-15.72c0.08-1.59-0.93-2.65-2.52-2.71
		c-0.35-0.01-0.71-0.01-1.07-0.01c-14.24,0-28.48,0.01-42.73,0.01c-0.49,0-0.99-0.02-1.47,0.05c-1.46,0.19-2.34,1.19-2.35,2.67
		c0,0.74,0.04,1.47,0.08,2.21c0.18,3.16,0.38,6.33,0.55,9.49c0.05,0.9-0.46,1.48-1.25,1.5c-0.73,0.02-1.15-0.44-1.2-1.34
		C13.98,73.7,13.91,72.65,13.85,71.59z M48.52,49.76c-0.56-0.28-1.09-0.2-1.6-0.24c-1.74-0.13-3.11-1.58-3.14-3.31
		c-0.03-1.68,1.2-3.07,2.93-3.28c0.68-0.08,1.36-0.11,2.04-0.1c1.22,0.01,2.47-0.06,3.5,0.83c0.34,0.29,0.49-0.02,0.54-0.31
		c0.12-0.64,0.21-1.29,0.3-1.94c0.23-1.63-0.05-3.28,0.09-4.91c0.04-0.52-0.1-0.66-0.56-0.76c-1.61-0.35-2.25-1.14-2.33-2.79
		c-0.02-0.49-0.01-0.98-0.02-1.48c-0.03-1.28,0.11-2.57-0.11-3.85c-0.25-1.45-1.29-2.36-2.76-2.44c-0.83-0.04-1.63,0.11-2.43,0.32
		c-1.98,0.52-3.97,0.69-6.01,0.43c-1.43-0.18-2.81-0.73-4.27-0.71c-1.85,0.02-3.08,1.24-3.09,3.1c-0.01,1.45,0,2.9,0,4.35
		c0,1.76-0.68,2.63-2.41,3.08c-0.36,0.09-0.54,0.21-0.53,0.65c0.05,1.37,0.04,2.73,0.04,4.1c-0.01,3.66,1.53,6.59,4.26,8.94
		C37.69,53.51,44.33,53.08,48.52,49.76z M41.06,15.17C41.06,15.17,41.06,15.17,41.06,15.17c-1.75,0.01-3.5,0-5.25,0.01
		c-0.79,0.01-1.6-0.02-2.37,0.11c-4.52,0.74-7.66,4.24-7.91,8.83c-0.11,1.99-0.06,3.99-0.06,5.98c0,2.13-0.01,2.17,2,2.83
		c1.92,0.63,1.7,0.87,1.59-1.21c-0.07-1.4-0.07-2.79,0.1-4.17c0.41-3.32,3.56-5.4,7.13-4.54c3.13,0.76,6.16,0.8,9.3,0.02
		c3.87-0.96,7,1.56,7.12,5.54c0.04,1.39,0.05,2.79-0.01,4.18c-0.02,0.56,0.13,0.62,0.59,0.46c0.59-0.21,1.18-0.43,1.79-0.57
		c0.86-0.21,1.21-0.73,1.21-1.59c-0.01-2.49,0.05-4.97,0-7.46c-0.04-1.9-0.8-2.68-2.69-2.99c-1.93-0.31-2.51-0.87-2.9-2.77
		c-0.42-2.05-1.14-2.65-3.25-2.65C45.33,15.16,43.2,15.17,41.06,15.17z M40.85,86.69C40.85,86.69,40.85,86.69,40.85,86.69
		c-8.06,0.01-16.12,0.01-24.19,0.01c-1.61,0-3.22,0.02-4.84,0.05c-0.76,0.02-1.28,0.54-1.33,1.28c-0.04,0.7,0.39,1.25,1.12,1.37
		c0.48,0.08,0.98,0.12,1.47,0.12c18.53,0.01,37.06,0.01,55.59,0c0.54,0,1.09-0.06,1.63-0.12c0.75-0.09,0.99-0.63,1.02-1.28
		c0.03-0.71-0.32-1.21-1.04-1.36c-0.37-0.07-0.76-0.07-1.14-0.07C59.71,86.69,50.28,86.69,40.85,86.69z M36.87,69.8
		c-0.24,0.2-0.32,0.27-0.4,0.34c-2.28,2.36-2.54,5.59-0.57,8.21c1.23,1.63,2.34,3.3,2.74,5.33c0.09,0.45,0.35,0.48,0.7,0.48
		c1.01-0.01,2.02-0.04,3.03,0c0.54,0.02,0.77-0.15,0.88-0.69c0.27-1.32,0.81-2.54,1.61-3.64c0.48-0.66,0.99-1.31,1.42-2
		c1.52-2.43,1.17-5.69-0.81-7.72c-0.13-0.13-0.25-0.34-0.47-0.25c-0.23,0.1-0.13,0.33-0.13,0.51c0,1.2,0.01,2.4,0,3.6
		c-0.01,1.49-0.91,2.61-2.36,2.93c-1.14,0.25-2.28,0.22-3.41-0.04c-1.11-0.26-1.8-0.99-2.07-2.09c-0.15-0.61-0.17-1.24-0.17-1.87
		C36.87,71.93,36.87,70.96,36.87,69.8z M40.94,57.8C40.94,57.79,40.94,57.79,40.94,57.8c1.83-0.01,3.66-0.03,5.49,0
		c0.52,0.01,0.46-0.24,0.38-0.56c-0.2-0.86-0.21-1.73-0.23-2.6c-0.02-1,0.02-1-0.98-0.69c-3.24,1.03-6.48,1.2-9.69-0.14
		c-0.47-0.2-0.71-0.16-0.68,0.44c0.05,1.06,0.11,2.13-0.2,3.17c-0.11,0.38,0.13,0.38,0.42,0.38C37.28,57.79,39.11,57.8,40.94,57.8z
		 M68.07,71.72c-0.04,0.06-0.11,0.13-0.12,0.2c-0.2,3.92-0.4,7.85-0.61,11.77c-0.02,0.44,0.2,0.5,0.55,0.48
		c0.63-0.02,1.26-0.03,1.88-0.01c0.42,0.02,0.58-0.12,0.57-0.56c-0.03-1.06-0.03-2.13,0-3.19c0.07-2.93-0.65-5.67-1.92-8.28
		C68.34,71.97,68.34,71.74,68.07,71.72z M23.06,32.82c0.28,1.68,0.18,3.15,0.2,4.62c0.02,1.87,0.47,2.3,2.35,2.27
		c0.5-0.01,0.67-0.19,0.68-0.67c0.01-1.17,0.04-2.35,0.07-3.52c0.01-0.26-0.02-0.49-0.31-0.6C24.97,34.49,24.07,33.8,23.06,32.82z
		 M58.51,33.11c-0.06-0.03-0.12-0.06-0.18-0.1c-0.52,1.04-1.4,1.59-2.46,1.89c-0.31,0.09-0.32,0.32-0.32,0.58
		c0,1.23-0.01,2.46-0.01,3.68c0,0.21-0.01,0.43,0.25,0.55c1.05,0.48,2.67-0.35,2.7-1.46C58.55,36.54,58.51,34.83,58.51,33.11z
		 M55.72,45.25c1.72-0.03,2.72-0.84,2.8-2.31c0.06-1.09,0.33-1.14-1.03-0.95c-0.67,0.09-1.56-0.08-1.95,0.29
		c-0.43,0.41-0.4,1.3-0.57,1.98C54.7,45.26,54.71,45.27,55.72,45.25z M48.64,45.39C48.64,45.39,48.64,45.39,48.64,45.39
		c-0.52,0-1.03,0.02-1.55-0.01c-0.67-0.04-0.83,0.37-0.87,0.91c-0.04,0.56,0.29,0.79,0.79,0.83c1.09,0.09,2.17,0.09,3.26-0.03
		c0.5-0.05,0.82-0.31,0.78-0.85c-0.04-0.51-0.24-0.88-0.86-0.85C49.67,45.41,49.16,45.39,48.64,45.39z"/>
	
		<linearGradient id="SVGID_00000057858523040755136630000009796806310536553102_" gradientUnits="userSpaceOnUse" x1="61.6582" y1="22.6388" x2="92.012" y2="22.6388">
		<stop  offset="0" style="stop-color:#243872"/>
		<stop  offset="1" style="stop-color:#1C68AD"/>
	</linearGradient>
	<path style="fill:url(#SVGID_00000057858523040755136630000009796806310536553102_);" d="M87.39,8c0.65,0.36,1.43,0.35,2.07,0.74
		c1.62,0.97,2.37,2.44,2.5,4.27c0.05,0.65,0.03,1.31,0.01,1.97c-0.03,0.83-0.53,1.38-1.21,1.39c-0.67,0.01-1.09-0.44-1.15-1.31
		c-0.04-0.63-0.02-1.26-0.04-1.88c-0.06-1.81-0.94-2.7-2.77-2.71c-3.63-0.01-7.27,0.02-10.9,0.02c-2.73,0-5.47,0-8.2,0
		c-0.46,0-0.93,0.02-1.39,0.09c-1.47,0.2-2.12,0.89-2.19,2.37c-0.05,1.17-0.03,2.35-0.03,3.52c0,2.13-0.01,4.26,0.01,6.4
		c0.02,1.74,0.59,2.4,2.3,2.72c2.5,0.48,3.4,1.56,3.41,4.09c0,1.29,0,2.59,0,3.92c0.35-0.23,0.49-0.63,0.7-0.96
		c0.95-1.56,1.93-3.11,2.82-4.71c0.94-1.68,2.31-2.42,4.23-2.38c2.87,0.06,5.74,0.04,8.61,0.04c0.49,0,0.99,0,1.47-0.08
		c1.12-0.19,1.79-0.93,1.87-2.07c0.06-0.82,0.05-1.64,0.09-2.46c0.04-0.63,0.43-1.03,1.03-1.1c0.62-0.08,1.1,0.28,1.2,0.88
		c0.36,2.18,0.22,4.27-1.44,5.95c-0.98,0.99-2.23,1.31-3.6,1.3c-3.25-0.02-6.5,0.01-9.76-0.03c-0.76-0.01-1.22,0.27-1.58,0.9
		c-1.31,2.27-2.65,4.52-3.98,6.78c-0.15,0.26-0.31,0.52-0.49,0.75c-0.61,0.78-1.44,1.03-2.33,0.74c-0.79-0.26-1.29-0.94-1.3-1.89
		c-0.02-1.94,0-3.88,0-5.82c0-1.26-0.03-1.3-1.27-1.51c-2.75-0.47-4.37-2.26-4.42-5.05c-0.05-3.17-0.04-6.34,0.01-9.51
		c0.05-2.87,1.28-4.37,4.08-5.14c0.21-0.06,0.4-0.16,0.61-0.23C73.39,8,80.39,8,87.39,8z"/>
	
		<linearGradient id="SVGID_00000099659903277255663150000004635750039193128321_" gradientUnits="userSpaceOnUse" x1="67.1946" y1="21.1295" x2="86.4407" y2="21.1295">
		<stop  offset="0" style="stop-color:#243872"/>
		<stop  offset="1" style="stop-color:#1C68AD"/>
	</linearGradient>
	<path style="fill:url(#SVGID_00000099659903277255663150000004635750039193128321_);" d="M76.92,19.87c2.68,0,5.35-0.01,8.03,0.01
		c1.03,0.01,1.55,0.51,1.48,1.33c-0.04,0.55-0.3,0.94-0.86,1.04c-0.4,0.07-0.81,0.12-1.22,0.12c-5.08,0.01-10.16,0.01-15.24,0.01
		c-0.08,0-0.16,0-0.25,0c-1.08-0.04-1.67-0.49-1.67-1.28c0-0.75,0.55-1.22,1.62-1.23C71.51,19.85,74.22,19.87,76.92,19.87
		C76.92,19.87,76.92,19.87,76.92,19.87z"/>
	
		<linearGradient id="SVGID_00000174598831086681495400000013855644128349960333_" gradientUnits="userSpaceOnUse" x1="73.3475" y1="15.3194" x2="86.415" y2="15.3194">
		<stop  offset="0" style="stop-color:#243872"/>
		<stop  offset="1" style="stop-color:#1C68AD"/>
	</linearGradient>
	<path style="fill:url(#SVGID_00000174598831086681495400000013855644128349960333_);" d="M79.89,16.53c-1.69,0-3.39,0-5.08,0
		c-0.84,0-1.42-0.46-1.46-1.12c-0.04-0.71,0.4-1.17,1.33-1.23c1.17-0.07,2.35-0.06,3.52-0.07c2.27,0,4.54-0.01,6.8,0.02
		c0.97,0.01,1.43,0.46,1.41,1.22c-0.02,0.79-0.47,1.17-1.44,1.17C83.28,16.54,81.58,16.53,79.89,16.53z"/>
	
		<linearGradient id="SVGID_00000045611282073146951990000018047326880007135394_" gradientUnits="userSpaceOnUse" x1="67.268" y1="15.3399" x2="70.9129" y2="15.3399">
		<stop  offset="0" style="stop-color:#243872"/>
		<stop  offset="1" style="stop-color:#1C68AD"/>
	</linearGradient>
	<path style="fill:url(#SVGID_00000045611282073146951990000018047326880007135394_);" d="M68.96,16.54
		c-0.27-0.01-0.68,0.04-1.06-0.19c-0.44-0.26-0.69-0.63-0.62-1.15c0.07-0.51,0.36-0.85,0.87-0.96c0.51-0.11,1.03-0.13,1.55-0.06
		c0.8,0.11,1.26,0.61,1.21,1.29c-0.05,0.63-0.55,1.04-1.32,1.06C69.42,16.54,69.26,16.54,68.96,16.54z"/>
</g>
</svg>
